<?xml version="1.0" encoding="UTF-8" standalone="no"?>
<!-- Created with Inkscape (http://www.inkscape.org/) -->

<svg
   xmlns:dc="http://purl.org/dc/elements/1.1/"
   xmlns:cc="http://creativecommons.org/ns#"
   xmlns:rdf="http://www.w3.org/1999/02/22-rdf-syntax-ns#"
   xmlns:svg="http://www.w3.org/2000/svg"
   xmlns="http://www.w3.org/2000/svg"
   xmlns:xlink="http://www.w3.org/1999/xlink"
   xmlns:sodipodi="http://sodipodi.sourceforge.net/DTD/sodipodi-0.dtd"
   xmlns:inkscape="http://www.inkscape.org/namespaces/inkscape"
   width="128"
   height="128"
   id="svg2"
   version="1.1"
   inkscape:version="0.48.3.1 r9886"
   sodipodi:docname="icon.svg"
   inkscape:export-filename="/home/mntnoe/Projects/custom-keyboard-shortcuts/icons/icon-128x128.png"
   inkscape:export-xdpi="90"
   inkscape:export-ydpi="90">
  <defs
     id="defs4">
    <linearGradient
       id="linearGradient4189">
      <stop
         id="stop4191"
         offset="0"
         style="stop-color:#3f3f3f;stop-opacity:1;" />
      <stop
         id="stop4193"
         offset="1"
         style="stop-color:#292929;stop-opacity:1;" />
    </linearGradient>
    <linearGradient
       id="linearGradient4169">
      <stop
         style="stop-color:#000000;stop-opacity:1;"
         offset="0"
         id="stop4171" />
      <stop
         style="stop-color:#414141;stop-opacity:1;"
         offset="1"
         id="stop4173" />
    </linearGradient>
    <linearGradient
       id="linearGradient4159">
      <stop
         style="stop-color:#7a7a7a;stop-opacity:1;"
         offset="0"
         id="stop4161" />
      <stop
         style="stop-color:#545454;stop-opacity:1;"
         offset="1"
         id="stop4163" />
    </linearGradient>
    <inkscape:perspective
       sodipodi:type="inkscape:persp3d"
       inkscape:vp_x="-25.631806 : 124.92197 : 1"
       inkscape:vp_y="0 : 1000 : 0"
       inkscape:vp_z="121.31344 : 129.37968 : 1"
       inkscape:persp3d-origin="64 : 42.666667 : 1"
       id="perspective4096" />
    <linearGradient
       inkscape:collect="always"
       xlink:href="#linearGradient4169"
       id="linearGradient4175"
       x1="50.730537"
       y1="39.47805"
       x2="70.322433"
       y2="58.334492"
       gradientUnits="userSpaceOnUse" />
    <linearGradient
       inkscape:collect="always"
       xlink:href="#linearGradient4189"
       id="linearGradient4187"
       x1="22.564178"
       y1="55.415764"
       x2="105.04835"
       y2="55.415764"
       gradientUnits="userSpaceOnUse"
       gradientTransform="matrix(1.0191071,0,0,0.94798622,-0.43113674,1.0351763)" />
  </defs>
  <sodipodi:namedview
     id="base"
     pagecolor="#ffffff"
     bordercolor="#666666"
     borderopacity="1.0"
     inkscape:pageopacity="0.0"
     inkscape:pageshadow="2"
     inkscape:zoom="2.6919679"
     inkscape:cx="-70.12255"
     inkscape:cy="117.84365"
     inkscape:document-units="px"
     inkscape:current-layer="layer4"
     showgrid="false"
     inkscape:window-width="1855"
     inkscape:window-height="1176"
     inkscape:window-x="65"
     inkscape:window-y="24"
     inkscape:window-maximized="1" />
  <metadata
     id="metadata7">
    <rdf:RDF>
      <cc:Work
         rdf:about="">
        <dc:format>image/svg+xml</dc:format>
        <dc:type
           rdf:resource="http://purl.org/dc/dcmitype/StillImage" />
        <dc:title></dc:title>
      </cc:Work>
    </rdf:RDF>
  </metadata>
  <g
     inkscape:label="Layer 1"
     inkscape:groupmode="layer"
     id="layer1"
     transform="translate(0,-924.36218)"
     sodipodi:insensitive="true"
     style="display:none">
    <path
       style="fill:#000000"
       d="m 13.143233,1043.7092 c -1.185589,-0.6375 -3.000059,-2.2025 -4.0321528,-3.4775 l -1.8765337,-2.3183 -0.1698652,-43.52091 -0.1698654,-43.52095 2.1663453,-4.3892 c 2.7096568,-5.48997 7.5008108,-10.40263 12.4410048,-12.7565 l 3.721988,-1.77343 38.770706,0.006 38.7707,0.006 3.10166,1.46355 c 4.22745,1.99478 7.52956,4.76468 10.67813,8.95714 4.69136,6.24673 4.49826,4.05835 4.54324,51.48572 0.0452,47.58398 0.29882,44.88168 -4.57801,48.77068 l -2.38361,1.9009 -49.414052,0.1634 c -47.247067,0.1562 -49.508597,0.1126 -51.569685,-0.9957 z m 99.547627,-1.4977 c 0.42383,-0.4396 0.32558,-0.4848 -0.31017,-0.1428 -0.51177,0.2754 -0.71306,0.2617 -0.44729,-0.031 0.6978,-0.7668 2.38704,-0.9175 1.92622,-0.172 -0.58064,0.9395 1.87434,-0.4754 2.83656,-1.6348 0.48415,-0.5833 0.66482,-1.7637 0.45621,-2.9804 -0.18998,-1.1079 -0.19765,-1.6542 -0.017,-1.2137 0.23606,0.5758 0.66031,0.4183 1.50886,-0.5601 1.13424,-1.3078 1.18046,-2.9347 1.18046,-41.55111 0,-26.55421 -0.2139,-40.32219 -0.63044,-40.57964 -0.34675,-0.2143 -0.49679,-0.60591 -0.33342,-0.87023 0.43257,-0.69992 -0.88067,-5.10005 -1.42223,-4.76535 -0.25191,0.15569 -0.50248,-0.32567 -0.55682,-1.0697 -0.0543,-0.74402 -0.81677,-1.97315 -1.6943,-2.73141 -0.87754,-0.75826 -1.51912,-1.46295 -1.42572,-1.56599 0.25201,-0.27808 -2.13238,-3.07706 -3.83292,-4.49935 -0.95879,-0.80191 -1.31694,-0.91159 -1.01275,-0.31016 0.25885,0.51177 -0.0422,0.32597 -0.66878,-0.41291 -1.15813,-1.36553 -5.18951,-3.30908 -6.86373,-3.30908 -0.58125,0 -0.20686,0.66648 1.01618,1.80898 3.85963,3.60543 3.77767,2.69378 3.77767,42.01878 0,35.14117 -0.0242,35.85317 -1.30699,38.50317 -1.55069,3.2033 -4.4216,5.3007 -9.530064,6.9626 -6.0481,1.9675 -12.470794,2.5156 -29.484475,2.5156 -15.287345,0 -23.953187,-0.6174 -26.885747,-1.9152 -1.109072,-0.4908 -1.019391,-0.5297 0.521667,-0.2261 1.023547,0.2016 10.793764,0.44 21.711596,0.5298 18.930356,0.1556 19.131659,0.1456 4.342318,-0.2144 l -15.508281,-0.3776 13.957453,-0.144 c 22.12221,-0.2284 30.723406,-1.6722 35.788206,-6.0075 2.040667,-1.7468 2.710297,-2.8471 3.242397,-5.3282 0.43176,-2.0133 0.6706,-14.58612 0.6706,-35.30216 0,-30.47606 -0.0637,-32.3237 -1.20463,-34.98555 -0.81637,-1.90452 -2.05099,-3.37061 -3.830637,-4.54883 l -2.626032,-1.73856 -25.480002,-0.3269 -25.480006,-0.32689 25.552051,-0.13836 c 16.213568,-0.0877 25.692175,-0.36507 25.935444,-0.75868 0.253964,-0.41092 -10.989429,-0.60023 -33.306193,-0.56078 -27.592974,0.0487 -33.128296,0.19415 -30.587928,0.80332 l 3.101657,0.74377 -2.543105,0.42975 c -1.398703,0.23636 -3.257203,0.99147 -4.129998,1.67801 -2.039853,1.60454 -2.840385,1.60891 -1.391204,0.008 0.617533,-0.68237 0.99217,-1.24067 0.832534,-1.24067 -0.159636,0 -1.110138,0.88061 -2.112222,1.95694 -1.002083,1.0763 -1.425596,1.72838 -0.941135,1.44906 0.687457,-0.39638 0.769961,-0.24721 0.375809,0.67947 -0.277766,0.65304 -0.849891,2.44352 -1.271394,3.97883 -0.661044,2.40787 -0.807647,2.57837 -1.06674,1.24067 -0.165213,-0.85296 -0.338397,14.16515 -0.38486,33.37359 -0.07418,30.66817 0.03449,35.15457 0.891763,36.81237 0.536928,1.0384 0.823093,2.041 0.635921,2.2281 -0.187173,0.1873 -0.892533,-0.9479 -1.567466,-2.5224 -1.172885,-2.7362 -1.228491,-4.4065 -1.257622,-37.77306 l -0.03046,-34.9101 1.523663,-3.25673 c 0.838018,-1.79121 1.83213,-3.25674 2.209142,-3.25674 0.377013,0 0.512958,-0.27915 0.302095,-0.62034 -0.210862,-0.34117 0.121598,-0.64237 0.738803,-0.66929 0.637446,-0.0278 0.790637,-0.18301 0.354637,-0.35924 -1.101485,-0.44526 -7.773018,2.73925 -7.309599,3.48907 0.234746,0.37984 -0.03207,0.46592 -0.67703,0.21844 -0.669462,-0.2569 -0.914201,-0.16534 -0.659524,0.24674 0.222724,0.36037 -0.170925,0.80582 -0.874772,0.98988 -0.703847,0.18406 -1.430316,0.91053 -1.614376,1.61438 -0.184058,0.70384 -0.560723,1.13999 -0.837025,0.96924 -0.682395,-0.42174 -2.806806,2.66271 -4.58132,6.65167 l -1.4626418,3.2879 -0.372707,42.02746 c -0.2689884,30.33132 -0.1831594,42.02752 0.308404,42.02752 0.374611,0 0.514868,0.4332 0.311679,0.9628 -0.203183,0.5295 -0.122727,0.8102 0.178798,0.6238 0.301524,-0.1864 0.7138518,0.093 0.9162848,0.6204 0.237866,0.6198 0.117243,0.8041 -0.3410078,0.5209 -0.436788,-0.27 -0.539106,-0.1633 -0.266451,0.278 0.243442,0.3938 0.8448718,0.7161 1.3365098,0.7161 0.491637,0 0.893885,0.2956 0.893885,0.657 0,0.3613 -0.279149,0.4844 -0.620332,0.2735 -1.4073518,-0.8698 -0.492301,0.2514 1.006872,1.2337 1.113259,0.7294 1.490588,0.8009 1.194665,0.2264 -0.237903,-0.4618 -0.06291,-0.3966 0.388868,0.1452 0.451781,0.5417 1.144772,0.8759 1.539984,0.7426 0.395213,-0.1332 0.871919,0.01 1.059359,0.3092 0.498988,0.8074 95.447692,0.1711 96.234412,-0.6449 z m -75.370246,-19.9568 c -1.876502,-0.4171 -4.441429,-1.1023 -5.699833,-1.5228 -2.949204,-0.9853 -7.331615,-5.2107 -7.312999,-7.0511 0.01216,-1.2045 0.149332,-1.1223 0.997474,0.5979 0.982995,1.9937 5.094731,4.9799 8.603536,6.2486 1.023546,0.3699 3.954612,0.9949 6.513479,1.3886 6.682146,1.028 6.843432,1.0794 3.411821,1.0887 -1.705911,0.01 -4.636976,-0.3329 -6.513478,-0.7499 z m 10.42932,0.4617 c 0.447798,-0.1792 0.982834,-0.1572 1.18897,0.049 0.20613,0.2061 -0.160256,0.3528 -0.814184,0.3258 -0.722656,-0.03 -0.869643,-0.1767 -0.374786,-0.3748 z m -23.859858,-16.9455 c 0,-2.9001 0.106858,-4.0864 0.237463,-2.6364 0.130597,1.45 0.130597,3.8227 0,5.2728 -0.130605,1.45 -0.237463,0.2636 -0.237463,-2.6364 z m 62.909189,17.5634 c -0.593092,-0.1553 -1.709689,-0.161 -2.481325,-0.012 -0.771636,0.1483 -0.286382,0.2754 1.078347,0.2823 1.364729,0.01 1.996071,-0.1146 1.402978,-0.2698 z m 4.02492,-0.605 c -0.426477,-0.1721 -1.12435,-0.1721 -1.550828,0 -0.426477,0.1721 -0.07755,0.3129 0.775415,0.3129 0.852955,0 1.201892,-0.1408 0.775413,-0.3129 z m 2.77857,-0.5843 c -0.206136,-0.2061 -0.741172,-0.2282 -1.18897,-0.049 -0.494857,0.198 -0.34787,0.3451 0.374785,0.3748 0.653929,0.027 1.020315,-0.1197 0.814185,-0.3259 z m 8.232305,-4.2777 c 0.80132,-0.8529 1.31736,-1.5508 1.14677,-1.5508 -0.17059,0 -0.96579,0.6979 -1.7671,1.5508 -0.80131,0.853 -1.317347,1.5508 -1.14676,1.5508 0.17059,0 0.96578,-0.6978 1.76709,-1.5508 z m 2.91121,-6.9669 c -0.15728,-0.6036 -0.2963,-0.26 -0.30895,0.7637 -0.0126,1.0235 0.11604,1.5172 0.28597,1.0973 0.16992,-0.42 0.18026,-1.2575 0.023,-1.861 z m 0.009,-4.6571 c -0.14837,-0.7716 -0.27541,-0.2864 -0.28229,1.0784 -0.007,1.3647 0.11452,1.996 0.26978,1.403 0.15526,-0.5932 0.16089,-1.7097 0.0125,-2.4814 z m 0.0224,-30.71361 c -0.11628,-2.64416 -0.21142,-0.48076 -0.21142,4.80757 0,5.28833 0.0951,7.45174 0.21142,4.80758 0.11628,-2.64416 0.11628,-6.97098 0,-9.61515 z m -0.0374,-33.14894 c -0.19802,-0.49486 -0.34501,-0.34788 -0.37477,0.37478 -0.027,0.65393 0.11967,1.02032 0.32581,0.81419 0.20613,-0.20614 0.22816,-0.74117 0.0489,-1.18897 z M 24.860973,940.3259 c 0.01874,-0.34118 -0.236495,-0.20161 -0.567231,0.31016 -0.330736,0.51178 -0.58599,1.34923 -0.567231,1.861 0.03598,0.98251 1.069867,-0.99612 1.134462,-2.17116 z m 78.912147,-0.47559 c -0.61265,-0.60808 -0.68391,-0.53684 -0.34726,0.34726 0.23295,0.61178 0.57982,0.95606 0.77081,0.76508 0.19099,-0.191 4e-4,-0.69154 -0.42355,-1.11234 z m -2.24814,-2.93623 c -0.98062,-1.02355 -2.014267,-1.861 -2.296997,-1.861 -0.50121,0 3.270477,3.6677 3.808797,3.70381 0.14914,0.01 -0.53117,-0.81927 -1.5118,-1.84281 z m -70.097429,-1.861 c 0.818056,-0.35152 0.923712,-0.54475 0.310167,-0.56723 -0.511774,-0.0187 -1.349221,0.2365 -1.860995,0.56723 -1.133947,0.73281 -0.154518,0.73281 1.550828,0 z"
       id="path3318"
       inkscape:connector-curvature="0"
       sodipodi:nodetypes="cscccsscccsssscsccccccsscsssscsscsssssssssccsscsssssscccsssscssssssssssscsscssscscsssssscsssccccsscsccsccccccscsccccccsssscccccsssscccccsssssccccccssccssssccccccsccsssssscsscas" />
  </g>
  <g
     inkscape:groupmode="layer"
     id="layer2"
     inkscape:label="Layer 2"
     style="display:inline">
    <path
       style="fill:url(#linearGradient4175);stroke:none;stroke-width:0.95528638000000021;stroke-linejoin:miter;stroke-opacity:1;fill-opacity:1"
       d="m 28.192147,8.3022652 71.458568,0 c 11.524655,0 20.802625,9.2779708 20.802625,20.8026258 l 0,77.590189 c 0,11.52465 -8.17246,12.8159 -8.17246,12.8159 l -95.232997,0 c -1.142854,0 -9.6583619,-1.29125 -9.6583619,-12.8159 l 0,-77.590189 c 0,-11.524655 9.2779709,-20.8026258 20.8026259,-20.8026258 z"
       id="rect3321"
       inkscape:connector-curvature="0"
       sodipodi:nodetypes="sssscssss" />
  </g>
  <g
     inkscape:groupmode="layer"
     id="layer3"
     inkscape:label="Layer 3">
    <path
       style="fill:url(#linearGradient4187);fill-opacity:1;stroke:none"
       d="m 34.7877,10.327185 59.613163,0 c 6.771837,0 12.223527,6.727119 12.223527,15.083229 l 0,57.127818 c 0,6.947495 -5.66182,10.570479 -11.087807,11.561698 -20.314471,3.71104 -37.921256,3.51428 -59.613164,0 C 30.783467,93.26721 22.564178,87.901036 22.564178,81.129618 l 0,-55.719204 c 0,-8.35611 5.451692,-15.083229 12.223522,-15.083229 z"
       id="rect4178"
       inkscape:connector-curvature="0"
       sodipodi:nodetypes="sssssssss" />
  </g>
  <g
     inkscape:groupmode="layer"
     id="layer4"
     inkscape:label="Layer 4">
    <path
       sodipodi:type="star"
       style="fill:#d4d4d4;fill-opacity:1;stroke:none"
       id="path4196"
       sodipodi:sides="5"
       sodipodi:cx="47.548859"
       sodipodi:cy="49.247204"
       sodipodi:r1="35.738949"
       sodipodi:r2="17.869474"
       sodipodi:arg1="-0.26179939"
       sodipodi:arg2="0.36651914"
       inkscape:flatsided="false"
       inkscape:rounded="0"
       inkscape:randomized="0"
       d="M 82.070032,39.997283 64.23145,55.651051 67.013685,79.220408 46.613643,67.092189 25.057609,77.021584 30.288272,53.872164 14.183676,36.43951 37.816445,34.260602 49.419291,13.557234 l 9.375192,21.80278 z"
       inkscape:transform-center-x="-0.31676796"
       inkscape:transform-center-y="-1.566527"
       transform="matrix(0.54804639,0,0,0.54804639,39.091847,27.68696)" />
  </g>
</svg>
